<?xml version="1.0" standalone="no"?>
<!DOCTYPE svg PUBLIC "-//W3C//DTD SVG 20010904//EN"
 "http://www.w3.org/TR/2001/REC-SVG-20010904/DTD/svg10.dtd">
<svg version="1.0" xmlns="http://www.w3.org/2000/svg"
 width="317.000000pt" height="214.000000pt" viewBox="0 0 317.000000 214.000000"
 preserveAspectRatio="xMidYMid meet">
<metadata>
Created by potrace 1.16, written by Peter Selinger 2001-2019
</metadata>
<g transform="translate(0.000000,214.000000) scale(0.100000,-0.100000)"
fill="#000000" stroke="none">
<path d="M592 2113 c-13 -34 -7 -157 12 -213 29 -86 38 -84 33 5 -2 44 -1 91
3 104 5 24 6 23 43 -19 25 -30 33 -46 25 -51 -16 -10 50 -49 85 -49 l27 0 -24
49 c-34 66 -64 100 -135 150 -55 38 -62 41 -69 24z"/>
<path d="M1325 2007 c-44 -18 -94 -46 -142 -80 -50 -35 -51 -47 -2 -18 52 30
117 47 131 33 15 -15 3 -55 -29 -94 l-28 -33 28 18 27 17 0 -29 c0 -21 -14
-48 -45 -86 -54 -65 -45 -74 13 -11 65 70 102 162 102 254 0 46 -5 48 -55 29z"/>
<path d="M633 1810 c-71 -16 -87 -32 -256 -239 -108 -133 -106 -131 -189 -131
-68 -1 -71 -2 -48 -15 14 -8 42 -14 63 -15 68 0 98 24 198 157 74 98 111 133
168 162 62 32 97 35 120 12 29 -29 27 -49 -4 -43 -14 2 -22 8 -19 13 20 33
-88 -35 -130 -81 -61 -68 -69 -92 -70 -225 -1 -108 -4 -124 -26 -165 -41 -74
-151 -112 -234 -80 -15 5 -26 6 -26 0 0 -4 25 -14 55 -21 100 -22 214 21 249
94 11 24 16 62 16 124 0 143 28 254 74 292 9 7 49 17 90 22 41 4 89 15 106 24
31 16 66 77 55 95 -5 8 -46 16 -130 24 -16 2 -44 0 -62 -4z"/>
<path d="M885 1690 c-22 -11 -71 -31 -110 -46 -97 -37 -149 -75 -174 -127 -22
-46 -25 -79 -11 -112 7 -16 9 -12 9 20 1 56 60 147 114 176 15 9 17 7 12 -13
-4 -14 2 -42 14 -68 l20 -45 0 56 c1 62 9 73 76 107 45 23 114 72 99 71 -5 0
-27 -9 -49 -19z"/>
<path d="M1198 1630 c-12 -30 -14 -48 -7 -72 15 -54 11 -79 -21 -108 -35 -32
-38 -46 -11 -53 32 -8 61 43 61 108 0 60 7 66 35 35 17 -19 18 -25 5 -68 -21
-72 -24 -136 -8 -150 11 -9 14 -4 14 26 1 20 9 57 19 82 22 55 17 81 -29 140
-19 25 -36 57 -38 72 -3 26 -4 26 -20 -12z"/>
<path d="M577 1096 c-34 -65 -110 -144 -226 -236 -118 -93 -156 -149 -171
-255 -17 -112 15 -178 115 -236 61 -35 76 -37 37 -4 -34 28 -96 143 -106 195
-10 53 20 133 70 189 24 27 82 81 128 120 47 40 99 93 115 118 29 43 76 152
69 159 -2 1 -16 -21 -31 -50z"/>
<path d="M491 1100 c-36 -50 -94 -78 -233 -114 -218 -57 -231 -66 -243 -171
l-7 -60 44 41 c55 53 77 64 129 64 23 0 40 3 37 6 -11 10 -106 6 -129 -7 -22
-11 -23 -11 -10 5 27 32 85 53 166 61 44 4 94 13 110 19 38 16 92 68 134 130
36 52 38 74 2 26z"/>
<path d="M686 1018 c-3 -13 -8 -44 -11 -71 -7 -54 -45 -131 -103 -209 -79
-106 -119 -267 -103 -414 10 -87 31 -133 90 -193 62 -64 118 -99 182 -117 73
-19 268 -18 344 1 94 25 279 119 545 279 341 206 482 271 760 354 217 65 508
124 682 138 120 10 72 25 -57 18 -278 -15 -542 -85 -960 -257 -119 -48 -261
-120 -351 -178 -235 -149 -412 -242 -556 -291 -162 -55 -317 -43 -433 34 -135
89 -194 199 -182 341 9 101 53 226 123 347 33 58 38 74 42 153 4 82 -2 115
-12 65z"/>
<path d="M2738 705 c-177 -36 -416 -116 -673 -227 -150 -64 -206 -97 -90 -52
136 53 663 227 845 279 38 11 41 13 15 13 -16 0 -60 -6 -97 -13z"/>
</g>
</svg>
