<?xml version="1.0" standalone="no"?>
<!DOCTYPE svg PUBLIC "-//W3C//DTD SVG 20010904//EN"
 "http://www.w3.org/TR/2001/REC-SVG-20010904/DTD/svg10.dtd">
<svg version="1.0" xmlns="http://www.w3.org/2000/svg"
 width="320.000000pt" height="157.000000pt" viewBox="0 0 320.000000 157.000000"
 preserveAspectRatio="xMidYMid meet">
<metadata>
Created by potrace 1.16, written by Peter Selinger 2001-2019
</metadata>
<g transform="translate(0.000000,157.000000) scale(0.100000,-0.100000)"
fill="#000000" stroke="none">
<path d="M1176 1358 c-8 -68 -8 -152 1 -202 5 -35 13 -43 92 -94 118 -75 118
-78 17 -42 -48 17 -90 29 -92 27 -2 -2 -1 -17 2 -34 6 -30 7 -31 152 -63 81
-18 156 -36 167 -40 14 -5 26 -27 38 -67 26 -84 79 -186 142 -268 55 -72 137
-156 102 -105 -37 54 -85 158 -98 210 -18 74 -16 202 5 273 9 32 14 61 12 66
-3 5 -110 84 -238 177 -128 92 -247 178 -264 191 l-31 23 -7 -52z"/>
<path d="M776 969 c36 -101 60 -146 85 -160 40 -21 194 -71 294 -95 l100 -24
-172 3 -172 3 32 -44 c18 -25 59 -74 92 -109 l60 -65 95 -14 c52 -8 127 -14
165 -15 90 -1 59 -14 -76 -32 l-94 -13 62 -42 c95 -65 223 -124 254 -118 15 3
40 8 55 11 28 6 28 6 -5 -13 l-34 -19 79 -21 c120 -32 197 -42 330 -42 110 0
281 21 307 37 6 4 -20 13 -59 20 -78 16 -198 65 -281 115 -161 97 -319 300
-369 475 -9 32 -17 59 -18 60 -1 1 -159 38 -351 82 -193 43 -362 82 -378 86
l-27 7 26 -73z"/>
<path d="M2320 828 c-22 -13 -62 -25 -104 -29 -139 -16 -240 -91 -281 -208
-15 -45 -19 -155 -6 -201 18 -66 279 -162 435 -159 40 1 45 2 26 8 -125 38
-230 168 -230 281 l1 45 14 -27 c8 -15 24 -29 35 -33 20 -6 60 -83 60 -116 0
-20 26 -49 43 -49 7 0 26 14 44 30 l32 29 -20 68 c-24 84 -24 116 -2 154 18
30 17 31 -14 91 l-32 61 20 38 c11 22 18 39 17 39 -2 0 -19 -10 -38 -22z"/>
</g>
</svg>
